# xmcd
#
# Track frame offsets:
#	150
#	25136
#	45308
#	65809
#	75836
#	95321
#	109299
#	127056
#	145173
#	151501
#	168279
#	192338
#	211013
#	228668
#	250539
#	269720
#	282631
#	299315
#	315167
#
# Disc length: 4461 seconds
#
# Revision: 1
# Processed by: cddbd v1.5.2PL0 Copyright (c) Steve Scherf et al.
# Submitted via: EZCDAudioConverter 1.3.4.1
#
DISCID=05116b13
DTITLE=Was (Not Was) - Pick Of The Litter
DYEAR=2009
DGENRE=
TTITLE0=Wheel Me Out
TTITLE1=Out Come The Freaks [7'' Version]
TTITLE2=Tell Me That I'm Dreaming
TTITLE3=The Sky's Ablaze
TTITLE4=Should I Wait
TTITLE5=Knocked Down, Made Small (Treated Like A Rubber Ball)
TTITLE6=Walk The Dinosaur
TTITLE7=Spy In The House Of Love [7'' Version]
TTITLE8=Dad, I'm In Jail
TTITLE9=Somewhere In America There's A Street Named After My Dad
TTITLE10=Papa Was A Rollin' Stone [Single Edit]
TTITLE11=I Feel Better Than James Brown
TTITLE12=I Blew Up The United States
TTITLE13=Semi-Interesting Week
TTITLE14=From The Head To The Heart
TTITLE15=Hello Operator... I Mean Dad... I Mean Police... I Can't Even Remembe
TTITLE15=r Who I Am [Rehearsal Version]
TTITLE16=Shake Your Head [Steve ''Silk'' Hurley Remix]
TTITLE17=Elvis' Rolls Royce
TTITLE18=Zaz Turned Blue
EXTD=
EXTT0=
EXTT1=
EXTT2=
EXTT3=
EXTT4=
EXTT5=
EXTT6=
EXTT7=
EXTT8=
EXTT9=
EXTT10=
EXTT11=
EXTT12=
EXTT13=
EXTT14=
EXTT15=
EXTT16=
EXTT17=
EXTT18=
PLAYORDER=
